<svg width="24" height="21" viewBox="0 0 24 21" fill="none" xmlns="http://www.w3.org/2000/svg">
<path d="M11.9998 7.57933V11.5793M11.9998 15.5793H12.0098M10.6151 2.47106L2.39019 16.6777C1.93398 17.4657 1.70588 17.8597 1.73959 18.183C1.769 18.4651 1.91677 18.7214 2.14613 18.8881C2.40908 19.0793 2.86435 19.0793 3.77487 19.0793H20.2246C21.1352 19.0793 21.5904 19.0793 21.8534 18.8881C22.0827 18.7214 22.2305 18.4651 22.2599 18.183C22.2936 17.8597 22.0655 17.4657 21.6093 16.6777L13.3844 2.47105C12.9299 1.68589 12.7026 1.29331 12.4061 1.16146C12.1474 1.04644 11.8521 1.04644 11.5935 1.16146C11.2969 1.29331 11.0696 1.68589 10.6151 2.47106Z" stroke="#F04438" stroke-width="2" stroke-linecap="round" stroke-linejoin="round"/>
</svg>
