<svg width="17" height="17" viewBox="0 0 17 17" fill="none" xmlns="http://www.w3.org/2000/svg">
<path d="M14.875 1.70005H11.8999V1.27504C11.8999 0.572066 11.3278 0 10.6249 0H6.37476C5.67179 0 5.09973 0.572066 5.09973 1.27504V1.70005H2.12464C1.42168 1.70005 0.849609 2.27211 0.849609 2.97508C0.849609 3.67805 1.42168 4.25012 2.12464 4.25012H14.875C15.578 4.25012 16.15 3.67805 16.15 2.97508C16.15 2.27211 15.578 1.70005 14.875 1.70005ZM5.94975 1.27504C5.94975 1.04085 6.14058 0.850023 6.37476 0.850023H10.6249C10.8595 0.850023 11.0499 1.04085 11.0499 1.27504V1.70005H5.94975V1.27504Z" fill="#000"/>
<path d="M1.84212 5.48212L2.98158 15.4924C3.07933 16.3514 3.8061 16.9999 4.67058 16.9999H12.3293C13.1938 16.9999 13.9205 16.3514 14.0183 15.4924L15.1577 5.48212C15.1811 5.27811 15.0213 5.09961 14.8165 5.09961H2.18341C1.97813 5.09961 1.81875 5.27811 1.84212 5.48212ZM7.2249 13.1748C7.2249 13.6445 6.84451 14.0249 6.37487 14.0249C5.90524 14.0249 5.52485 13.6445 5.52485 13.1748V7.64968C5.52485 7.18004 5.90524 6.79966 6.37487 6.79966C6.84451 6.79966 7.2249 7.18004 7.2249 7.64968V13.1748ZM11.475 13.1748C11.475 13.6445 11.0946 14.0249 10.625 14.0249C10.1554 14.0249 9.77497 13.6445 9.77497 13.1748V7.64968C9.77497 7.18004 10.1554 6.79966 10.625 6.79966C11.0946 6.79966 11.475 7.18004 11.475 7.64968V13.1748Z" fill="#000"/>
</svg>
