<?xml version="1.0" ?><svg viewBox="0 0 96 96" xmlns="http://www.w3.org/2000/svg"><title/><path d="M31.7582,93.0634A17.9879,17.9879,0,0,1,19.0319,62.3493L44.4845,36.8967a5.9992,5.9992,0,0,1,8.4841,8.4842L27.5161,70.8334A5.9992,5.9992,0,1,0,36,79.3176L69.937,45.3809a17.993,17.993,0,0,0,0-25.4525,18.4232,18.4232,0,0,0-25.4525,0L19.0319,45.3809a5.9992,5.9992,0,1,1-8.4841-8.4842L36,11.4442C47.3555.1008,67.1128.1008,78.4211,11.4442a29.9883,29.9883,0,0,1,0,42.4209L44.4845,87.8018A17.9584,17.9584,0,0,1,31.7582,93.0634Z"/></svg>